<?xml version="1.0" encoding="UTF-8" standalone="no"?>
<svg
   xmlns:dc="http://purl.org/dc/elements/1.1/"
   xmlns:cc="http://creativecommons.org/ns#"
   xmlns:rdf="http://www.w3.org/1999/02/22-rdf-syntax-ns#"
   xmlns:svg="http://www.w3.org/2000/svg"
   xmlns="http://www.w3.org/2000/svg"
   xmlns:sodipodi="http://sodipodi.sourceforge.net/DTD/sodipodi-0.dtd"
   xmlns:inkscape="http://www.inkscape.org/namespaces/inkscape"
   width="24"
   height="24"
   viewBox="0 0 24 24"
   version="1.1"
   id="svg45"
   sodipodi:docname="cross.svg"
   inkscape:version="1.0.2 (e86c870879, 2021-01-15)">
  <metadata
     id="metadata51">
    <rdf:RDF>
      <cc:Work
         rdf:about="">
        <dc:format>image/svg+xml</dc:format>
        <dc:type
           rdf:resource="http://purl.org/dc/dcmitype/StillImage" />
        <dc:title></dc:title>
      </cc:Work>
    </rdf:RDF>
  </metadata>
  <defs
     id="defs49" />
  <sodipodi:namedview
     pagecolor="#ffffff"
     bordercolor="#666666"
     borderopacity="1"
     objecttolerance="10"
     gridtolerance="10"
     guidetolerance="10"
     inkscape:pageopacity="0"
     inkscape:pageshadow="2"
     inkscape:window-width="1920"
     inkscape:window-height="1015"
     id="namedview47"
     showgrid="false"
     inkscape:zoom="29.791667"
     inkscape:cx="12"
     inkscape:cy="12"
     inkscape:window-x="0"
     inkscape:window-y="0"
     inkscape:window-maximized="1"
     inkscape:current-layer="svg45" />
  <path
     style="fill:#ffffff;stroke-width:0.0335664"
     d="M 3.3625657,20.730649 2.9599215,20.324476 7.0696062,16.163225 11.179291,12.001974 10.733701,11.561993 C 9.2460829,10.0931 6.206352,7.0819717 4.6636633,5.5490722 L 2.8657882,3.7626054 3.2706563,3.3609702 3.6755245,2.959335 7.8207367,7.0525873 c 2.2798663,2.251289 4.1628463,4.0890747 4.1843993,4.0839687 0.02155,-0.0051 1.869471,-1.8634091 4.106485,-4.129563 2.237015,-2.2661538 4.077628,-4.1202797 4.090252,-4.1202797 0.03219,0 0.810714,0.7839172 0.810714,0.8163256 0,0.014578 -1.835649,1.8796784 -4.079221,4.1446667 -2.243572,2.2649884 -4.07504,4.1356334 -4.06993,4.1569874 0.0051,0.02135 1.863417,1.869239 4.129571,4.10641 2.266154,2.23717 4.12028,4.077501 4.12028,4.089624 0,0.03189 -0.782636,0.81186 -0.814638,0.81186 -0.01478,0 -1.880178,-1.835681 -4.145324,-4.079293 -2.265146,-2.243611 -4.136271,-4.07508 -4.158056,-4.06993 -0.02178,0.0051 -1.063508,1.044049 -2.3149418,2.308664 -1.2514339,1.264615 -3.0942855,3.124037 -4.0952258,4.132048 l -1.8198915,1.832746 z"
     id="path57" />
</svg>
