<?xml version="1.0" encoding="UTF-8" standalone="no"?>
<svg
   xmlns:dc="http://purl.org/dc/elements/1.1/"
   xmlns:cc="http://creativecommons.org/ns#"
   xmlns:rdf="http://www.w3.org/1999/02/22-rdf-syntax-ns#"
   xmlns:svg="http://www.w3.org/2000/svg"
   xmlns="http://www.w3.org/2000/svg"
   xmlns:xlink="http://www.w3.org/1999/xlink"
   xmlns:sodipodi="http://sodipodi.sourceforge.net/DTD/sodipodi-0.dtd"
   xmlns:inkscape="http://www.inkscape.org/namespaces/inkscape"
   preserveAspectRatio="none"
   width="312"
   height="547"
   overflow="hidden"
   version="1.1"
   id="svg212"
   sodipodi:docname="heart_left.svg"
   inkscape:version="1.0.2 (e86c870879, 2021-01-15)">
  <metadata
     id="metadata216">
    <rdf:RDF>
      <cc:Work
         rdf:about="">
        <dc:format>image/svg+xml</dc:format>
        <dc:type
           rdf:resource="http://purl.org/dc/dcmitype/StillImage" />
        <dc:title></dc:title>
      </cc:Work>
    </rdf:RDF>
  </metadata>
  <sodipodi:namedview
     pagecolor="#ffffff"
     bordercolor="#666666"
     borderopacity="1"
     objecttolerance="10"
     gridtolerance="10"
     guidetolerance="10"
     inkscape:pageopacity="0"
     inkscape:pageshadow="2"
     inkscape:window-width="1918"
     inkscape:window-height="1061"
     id="namedview214"
     showgrid="false"
     inkscape:zoom="0.22093424"
     inkscape:cx="2708.3463"
     inkscape:cy="1073.1972"
     inkscape:window-x="0"
     inkscape:window-y="0"
     inkscape:window-maximized="0"
     inkscape:current-layer="svg212" />
  <defs
     id="defs208">
    <linearGradient
       id="a"
       gradientUnits="userSpaceOnUse"
       x1="312.5"
       y1="-250.038"
       x2="312.5"
       y2="750.038"
       spreadMethod="pad">
      <stop
         offset="0%"
         stop-color="#FF6680"
         id="stop202" />
      <stop
         offset="100%"
         stop-color="#E61739"
         id="stop204" />
    </linearGradient>
    <path
       fill="url(#a)"
       d="M622.7 148.55q-5.55-38.1-22.9-69.75-19.6-35.8-50.65-55.9Q513.8.05 467.05.05V0q-47.2 0-82.1 17.8-27.9 14.25-46.7 39.2-13.4 17.8-20.9 39.2-3.75 10.7-4.85 17.8-1.05-7.1-4.85-17.8-7.5-21.4-20.85-39.2-18.75-24.95-46.65-39.2Q205.25 0 158.05 0q-46.8 0-82.15 22.85-31.1 20.1-50.7 55.9Q7.8 110.4 2.3 148.5q-5.15 35.35 1.25 64.65 14.6 67.55 66.2 135 41.3 54 104.25 105.55 44.95 36.85 96.25 68.75Q295.9 538.4 312.5 547q16.65-8.6 42.3-24.55 51.3-31.9 96.3-68.75 62.95-51.55 104.25-105.55 51.6-67.45 66.2-135 6.3-29.3 1.15-64.6Z"
       id="b" />
  </defs>
  <use
     xlink:href="#b"
     id="use210"
     transform="translate(-0.4740569)"
     x="0"
     y="0"
     width="100%"
     height="100%" />
</svg>
