<?xml version="1.0" encoding="UTF-8" standalone="no"?>
<svg
   xmlns:dc="http://purl.org/dc/elements/1.1/"
   xmlns:cc="http://creativecommons.org/ns#"
   xmlns:rdf="http://www.w3.org/1999/02/22-rdf-syntax-ns#"
   xmlns:svg="http://www.w3.org/2000/svg"
   xmlns="http://www.w3.org/2000/svg"
   xmlns:sodipodi="http://sodipodi.sourceforge.net/DTD/sodipodi-0.dtd"
   xmlns:inkscape="http://www.inkscape.org/namespaces/inkscape"
   width="24"
   height="24"
   fill-rule="evenodd"
   clip-rule="evenodd"
   version="1.1"
   id="svg19"
   sodipodi:docname="iconmonstr-heart-thin2.svg"
   inkscape:version="1.0.2 (e86c870879, 2021-01-15)">
  <metadata
     id="metadata25">
    <rdf:RDF>
      <cc:Work
         rdf:about="">
        <dc:format>image/svg+xml</dc:format>
        <dc:type
           rdf:resource="http://purl.org/dc/dcmitype/StillImage" />
        <dc:title></dc:title>
      </cc:Work>
    </rdf:RDF>
  </metadata>
  <defs
     id="defs23" />
  <sodipodi:namedview
     pagecolor="#ffffff"
     bordercolor="#666666"
     borderopacity="1"
     objecttolerance="10"
     gridtolerance="10"
     guidetolerance="10"
     inkscape:pageopacity="0"
     inkscape:pageshadow="2"
     inkscape:window-width="1920"
     inkscape:window-height="1015"
     id="namedview21"
     showgrid="false"
     inkscape:zoom="29.791667"
     inkscape:cx="12"
     inkscape:cy="12"
     inkscape:window-x="0"
     inkscape:window-y="0"
     inkscape:window-maximized="1"
     inkscape:current-layer="svg19" />
  <path
     d="M12 21.593c-5.63-5.539-11-10.297-11-14.402 0-3.791 3.068-5.191 5.281-5.191 1.312 0 4.151.501 5.719 4.457 1.59-3.968 4.464-4.447 5.726-4.447 2.54 0 5.274 1.621 5.274 5.181 0 4.069-5.136 8.625-11 14.402m5.726-20.583c-2.203 0-4.446 1.042-5.726 3.238-1.285-2.206-3.522-3.248-5.719-3.248-3.183 0-6.281 2.187-6.281 6.191 0 4.661 5.571 9.429 12 15.809 6.43-6.38 12-11.148 12-15.809 0-4.011-3.095-6.181-6.274-6.181"
     id="path17"
     style="fill:#ffffff" />
  <path
     style="fill:#000000;stroke-width:0.0335664"
     d="M 9.7444327,19.357904 C 6.5005692,16.184215 5.057472,14.668807 3.8404098,13.158042 2.2208438,11.147641 1.3724704,9.5611133 1.08521,8.0055944 1.0178356,7.6407608 1.0107875,6.7652251 1.0718347,6.3440559 1.2127065,5.3721707 1.5682264,4.5500352 2.1512201,3.8479902 3.3471199,2.4078795 5.5968963,1.6993085 7.5020979,2.1627218 c 1.0977056,0.2670013 1.9018362,0.7237346 2.7189371,1.5443128 0.681019,0.6839159 1.176304,1.4188528 1.59138,2.3613949 0.0999,0.2268615 0.191596,0.4005654 0.203758,0.386009 0.01216,-0.014557 0.06585,-0.1322007 0.119315,-0.2614315 0.332135,-0.8028681 0.841358,-1.6123694 1.420826,-2.2586582 1.178944,-1.3148945 2.922045,-2.0316262 4.593547,-1.8887833 2.456535,0.2099303 4.22326,1.6744388 4.704208,3.8995057 0.377722,1.7474991 -0.0792,3.4618097 -1.488579,5.5849988 -1.240357,1.868558 -2.84999,3.643151 -6.995488,7.71241 -1.22573,1.203188 -2.263393,2.214982 -2.305917,2.248432 l -0.07732,0.06082 z"
     id="path119" />
</svg>
